<svg width="21" height="21" viewBox="0 0 21 21" fill="none" xmlns="http://www.w3.org/2000/svg">
<path d="M18.375 2.625H17.5001V0.874947C17.5001 0.392052 17.108 0 16.6249 0H15.75C15.2669 0 14.8751 0.392052 14.8751 0.874947V2.625H6.12495V0.874947C6.12495 0.392052 5.73306 0 5.25 0H4.37505C3.892 0 3.49995 0.392052 3.49995 0.874947V2.625H2.625C1.17776 2.625 0 3.80276 0 5.25V18.375C0 19.8222 1.17776 21 2.625 21H18.375C19.8222 21 21 19.8222 21 18.375V5.25C21 3.80276 19.8222 2.625 18.375 2.625ZM19.2499 18.375C19.2499 18.8571 18.8571 19.2499 18.375 19.2499H2.625C2.14291 19.2499 1.75005 18.8571 1.75005 18.375V8.78503H19.2499V18.375Z" fill="#656565"/>
</svg>
